<svg width="40" height="40" viewBox="0 0 80 80" fill="none" xmlns="http://www.w3.org/2000/svg">
<path fill-rule="evenodd" clip-rule="evenodd" d="M65.7602 44.2149C66.871 40.3642 65.0938 31.6854 49.0986 27.7754C45.1739 26.4425 36.7024 23.0213 34.2142 20C33.844 21.7032 33.5922 25.465 35.5471 26.8868C30.7338 26.5906 18.4857 28.0864 8 36.4395C16.59 42.3636 33.5034 55.5448 32.4371 60.8765C35.6953 57.4702 44.1224 50.7018 51.7646 50.8796C57.0222 50.8055 67.9375 52.6124 69.537 60.4322C72.0547 56.4334 74.8241 47.5917 65.7602 44.2149ZM59.0958 42.6597L56.2078 40.4382C55.7635 41.1787 54.5638 42.3043 53.3198 40.8825C53.0236 40.4382 52.6977 39.3274 53.7641 38.4388L51.5426 37.1059V40.6603C51.6166 41.4009 52.1202 42.8375 53.542 42.6597H59.0958Z" fill="white"/>
</svg>
