<svg xmlns="http://www.w3.org/2000/svg" xmlns:xlink="http://www.w3.org/1999/xlink" aria-hidden="true" focusable="false" width="1em" height="1em" style="-ms-transform: rotate(360deg); -webkit-transform: rotate(360deg); transform: rotate(360deg);" preserveAspectRatio="xMidYMid meet" viewBox="0 0 256 256">
  <path d="M128 26a102.027 102.027 0 0 0-89.038 151.795l-8.775 30.71a14 14 0 0 0 17.308 17.309l30.711-8.775A102.007 102.007 0 1 0 128 26zm0 192a89.868 89.868 0 0 1-45.93-12.587a6.006 6.006 0 0 0-4.716-.612l-33.156 9.473a1.999 1.999 0 0 1-2.472-2.471l9.472-33.157a5.998 5.998 0 0 0-.612-4.714A90.011 90.011 0 1 1 128 218zm51.504-73.193l-20.46-11.693a14.02 14.02 0 0 0-14.148.152l-12.845 7.707a42.032 42.032 0 0 1-17.023-17.024l7.707-12.845a14.014 14.014 0 0 0 .15-14.148l-11.691-20.46A12.92 12.92 0 0 0 100 70a34.011 34.011 0 0 0-34 33.878A85.999 85.999 0 0 0 151.999 190h.123A34.011 34.011 0 0 0 186 156a12.917 12.917 0 0 0-6.496-11.193zM152.105 178H152A74 74 0 0 1 78 103.896A21.994 21.994 0 0 1 100 82a.894.894 0 0 1 .775.45l11.691 20.46a2.001 2.001 0 0 1-.021 2.02l-9.39 15.65a6 6 0 0 0-.326 5.547a54.034 54.034 0 0 0 27.145 27.144a5.997 5.997 0 0 0 5.547-.327l15.648-9.388a2.01 2.01 0 0 1 2.022-.023l20.46 11.693A.894.894 0 0 1 174 156a21.994 21.994 0 0 1-21.895 22z" fill="currentColor"/>
</svg>
